<?xml version="1.0" encoding="UTF-8" standalone="no"?>
<svg id="svg2" xmlns:rdf="http://www.w3.org/1999/02/22-rdf-syntax-ns#" xmlns="http://www.w3.org/2000/svg" viewBox="0 0 1177.6998 1110.0087" height="1110pt" width="1177.7pt" version="1.1" xmlns:cc="http://creativecommons.org/ns#" xmlns:dc="http://purl.org/dc/elements/1.1/">
<g id="g7617">
<path id="rect4255" d="m0 0v0.77969c0.19-0.2 0.5796-0.58969 0.7796-0.77969zm583.18 5.25c-191.76 120.51-383.43 241.17-575.45 361.25 16.99 1.15 34.05 0.31031 51.07 0.42031 11.905 0.16459 23.81 0.14828 35.716 0.061 0.06 6.3227 0.1004 12.645 0.1703 18.978 5.99 0.04 11.98 0.071 17.98 0.061-0.1 7.99-0.08 15.98 0.02 23.98-0.11 7.99-0.131 15.981-0.02 23.991-6-0.02-12-0.0103-18 0.0297-0.06 5.98-0.06 11.94 0 17.93 4.65 0.06 9.3009 0.0697 13.961 0.12969 0.03 9.95 0.03 19.91 0.05 29.88 4.65 0.05 9.3 0.0413 13.95 0.0812 0.05 145.97 0.039 291.95 0.01 437.92-4.65 0.04-9.2991 0.0216-13.939 0.0813-0.14 9.97-0.1099 19.95-0.03 29.95-5.32-0.02-10.647-0.0104-15.967 0.0296-0.11 8.64-0.1329 17.3-0.033 25.97-6-0.0296-11.99-0.0312-17.98 0.0184-0.12 13.32-0.05 26.65-0.02 39.98-8.66-0.05-17.32-0.042-25.98 0.038-0.09 10.31-0.1109 20.63-0.02 30.97 360.99 0 721.99 0.0008 1083-0.01 0.07-10.33 0.06-20.651 0-30.961-4.17-0.055-8.3424-0.08-12.511-0.083-4.1688 0-8.3341 0.019-12.489 0.053 0.11-13.329-0.011-26.659-0.011-39.978-4.5051-0.0352-9.0044-0.056-13.502-0.0608-4.4976-0.008-8.9925 0.008-13.488 0.0312 0.07-8.67 0.07-17.321 0-25.961-6.68-0.09-13.371-0.0991-20.011-0.0392 0.14-9.99 0.022-19.98-0.01-29.95-5.33-0.04-10.651-0.0712-15.941-0.0812-0.05-145.64-0.05-291.28 0-436.92 5.3-0.03 10.61-0.0606 15.95-0.0906 0.02-10.31-0.0002-20.609 0.041-30.909 5.64-0.04 11.279-0.0703 16.959-0.0703 0.05-5.99 0.041-11.971 0.011-17.941-3.6749-0.035-7.3464-0.0547-11.012-0.061-3.6664-0.006-7.3276 0.002-10.988 0.0218 0.09-8 0.062-16.001-0.018-23.991 0.1-7.9995 0.1095-16 0.018-23.989 7.32 0.03 14.65 0.0203 22-0.0297 0.06-6.33 0.019-12.649-0.011-18.959-3.6187-0.0593-7.1-0.0995-10.667-0.13907 1.074-0.0008 2.148-0.00029 3.222-0.002 3.61 0.04 7.129 0.0806 10.789 0.14063 10.13 0.04 20.261-0.0008 30.411-0.16094 12.25 0.17 24.639 0.87094 36.859-0.53906-188.13-120.27-376-240.87-564.12-361.07zm562.95 1041.7c-4.8328 0-9.6626 0.01-14.488 0.034-360.99 0.01-721.99 0.01-1083 0.01-8-0.05-15.989-0.06-23.989 0.02-0.11 11.65-0.061 23.3-0.011 34.97-3.665-0.03-7.3287-0.042-10.994-0.038-3.6649 0.01-7.3303 0.026-10.995 0.066-0.11 9.31-0.091 18.62 0.01 27.95 391.65 0.06 783.3 0.04 1175 0.011 0.09-9.33 0.082-18.659-0.01-27.959-5.69-0.05-11.351-0.07-16.991-0.03 0.14-11.67 0-23.33 0-34.97-4.8349-0.04-9.6691-0.06-14.502-0.064z" fill="#a49064"/>
<path id="path6" d="m583.18 5.25c-191.76 120.51-383.43 241.17-575.45 361.25 16.99 1.15 34.05 0.31031 51.07 0.42031 174.65-113.54 349.53-226.75 524.34-340.04 176.17 112.61 351.54 226.61 527.25 339.98 12.25 0.17 24.639 0.87093 36.859-0.53907-188.03-120.27-375.9-240.87-564.02-361.07zm482.67 361.63c-323.45 0.25-646.89 0.10031-970.34 0.0703l-0.9906 0.009c0.06 6.33 0.1003 12.66 0.1703 19 5.99 0.04 11.98 0.0709 17.98 0.0609 313.99-0.04 627.99-0.0209 941.98-0.0109 7.32 0.03 14.65 0.0203 22-0.0297 0.06-6.33 0.019-12.649-0.011-18.959-3.66-0.06-7.1791-0.10062-10.789-0.14062zm-0.2124 67.089c-3.6664-0.006-7.3276 0.002-10.988 0.0219-313.99 0.01-627.99 0.02-941.98 0-6-0.02-12-0.0103-18 0.0297-0.06 5.98-0.06 11.94 0 17.93 4.65 0.06 9.3009 0.0697 13.961 0.12969 0.03 9.95 0.03 19.91 0.05 29.88 4.65 0.05 9.3 0.0412 13.95 0.0812 0.05 145.97 0.039 291.95 0.01 437.92-4.65 0.04-9.2991 0.0213-13.939 0.0813-0.14 9.97-0.1112 19.95-0.031 29.95 46.33 0.03 92.661 0.01 138.99 0 0.05-9.97 0.029-19.951-0.041-29.911-5.31-0.06-10.619-0.10904-15.919-0.13904-0.06-145.95-0.081-291.91 0.01-437.86 5.29-0.07 10.591-0.12907 15.891-0.18907 0.03-9.95 0.08-19.891 0.1-29.831 11.97-0.18 23.949-0.17 35.919 0 0.02 10.28 0.05 20.57 0.07 30.87 4.64 0.06 9.2697 0.08 13.93 0.15 0.07 145.62 0.051 291.24 0.011 436.86-4.64 0.04-9.2997 0.0387-13.93 0.11872-0.1 9.97-0.1306 19.941-0.041 29.931 46.67 0.01 93.33 0.02 140 0 0.05-9.98 0.03-19.971-0.03-29.931-5.65-0.05-11.3-0.0994-16.93-0.10936-0.06-145.96-0.081-291.91 0.01-437.87 5.29-0.07 10.591-0.13907 15.891-0.18907 0.03-9.95 0.069-19.9 0.089-29.85 109.31-0.06 218.62-0.0912 327.93 0.0188 0.01 9.95 0.05 19.91 0.07 29.87 4.65 0.05 9.2597 0.0706 13.93 0.14062 0.06 145.94 0.07 291.88 0 437.82-3.73 0.04-11.189 0.12872-14.919 0.16872-0.1 9.97-0.1306 19.941-0.041 29.931 46.67 0.02 93.33 0.01 140 0 0.05-9.97 0.019-19.951-0.041-29.911-5.32-0.06-10.629-0.10904-15.919-0.13904-0.06-145.95-0.081-291.91 0.01-437.86 5.28-0.07 10.581-0.12907 15.891-0.18907 0.03-9.95 0.069-19.901 0.1094-29.841 10.29-0.17 20.59-0.16062 30.9 0.009 0.02 9.95 0.06 19.91 0.08 29.87 4.65 0.05 9.2497 0.0706 13.93 0.14062 0.06 145.94 0.07 291.88 0 437.82-3.73 0.04-11.189 0.12872-14.919 0.16872-0.1 9.97-0.1306 19.941-0.041 29.931 46.66 0.01 93.32 0.03 139.98 0 0.14-9.99 0.021-19.98-0.01-29.95-5.33-0.04-10.651-0.0713-15.941-0.0813-0.05-145.64-0.05-291.28 0-436.92 5.3-0.03 10.61-0.0606 15.95-0.0906 0.02-10.31 0.0006-20.609 0.041-30.909 5.64-0.04 11.279-0.0703 16.959-0.0703 0.05-5.99 0.041-11.971 0.011-17.941-3.675-0.035-7.3462-0.0547-11.012-0.0609zm-888.48 47.973c4.8262-0.002 9.6528 0.0225 14.483 0.0875 0.04 145.98 0.03 291.96 0 437.95-9.66 0.07-19.309 0.11064-28.959-0.009-0.04-145.98-0.03-291.97 0-437.95 4.825-0.045 9.6503-0.0756 14.477-0.0781zm642 0c4.8275-0.002 9.6575 0.0225 14.488 0.0875 0.03 145.98 0.03 291.96 0 437.95-9.67 0.07-19.309 0.11064-28.959-0.009-0.04-145.98-0.04-291.97 0-437.95 4.82-0.045 9.6444-0.0756 14.472-0.0781zm170 0c4.8275-0.002 9.6575 0.0225 14.488 0.0875 0.03 145.98 0.03 291.96 0 437.95-9.67 0.07-19.309 0.11064-28.959-0.009-0.04-145.98-0.04-291.97 0-437.95 4.82-0.045 9.6444-0.0756 14.472-0.0781zm-636.5 0.003c4.6587 0 9.3178 0.025 13.983 0.075 0.04 145.99 0.03 291.97 0 437.96-9.32 0.08-18.639 0.09-27.959 0-0.04-145.99-0.03-291.97 0-437.96 4.66-0.05 9.3178-0.075 13.977-0.075zm-147.93 0.06c4.3-0.02 8.63-0.01 12.95 0 0.03 146 0.041 292-0.01 438-4.32-0.04-8.63 0-12.95 0-0.03-146-0.041-292 0.01-438zm107 0c4.3-0.02 8.63-0.01 12.95 0 0.03 146 0.041 292-0.01 438-4.33-0.04-8.63 0-12.95 0-0.03-146-0.041-292 0.01-438zm535 0c4.28-0.02 8.63-0.01 12.95 0 0.03 146 0.041 292-0.01 438-4.35-0.04-8.63 0-12.95 0-0.03-146-0.041-292 0.01-438zm170 0c4.27-0.02 8.63-0.01 12.95 0 0.03 146 0.041 292-0.01 438-4.36-0.04-8.64 0-12.95 0-0.03-146-0.041-292 0.01-438zm-880.01 1c3.99-0.01 7.9694-0.01 11.959 0 0.03 145.66 0.04 291.33 0 437-3.99-0.02-7.9794-0.02-11.959 0-0.03-145.67-0.04-291.33 0-437zm244 0c3.98-0.01 7.9694-0.01 11.959 0 0.03 145.66 0.04 291.33 0 437-4-0.02-7.9794-0.02-11.959 0-0.03-145.67-0.04-291.33 0-437zm398 0c3.97-0.01 7.9594-0.01 11.959 0 0.03 145.66 0.04 291.33 0 437-4-0.02-7.9894-0.02-11.959 0-0.03-145.67-0.04-291.33 0-437zm170 0c3.97-0.01 7.9494-0.01 11.959 0 0.03 145.66 0.04 291.33 0 437-4.01-0.02-7.9894-0.02-11.959 0-0.03-145.67-0.04-291.33 0-437zm-366.52 21.984c-45.168 0-90.335 0.0206-135.5 0.0656-0.01 5.61-0.02 11.24-0.02 16.87 1.51 0.03 4.5109 0.0903 6.0109 0.12031 86.34-0.07 172.68-0.06 259.02 0 1.5-0.04 4.5109-0.11 6.0109-0.15-0.02-5.63-0.03-11.24-0.02-16.85-45.165-0.035-90.332-0.0562-135.5-0.0562zm510.98 470.97c-4.4976-0.005-8.9926 0.006-13.488 0.0313-328.99 0.01-657.99 0.02-986.98 0-6-0.03-11.99-0.0313-17.98 0.0187-0.12 13.32-0.05 26.651-0.02 39.981 343.99 0.02 687.98 0.01 1032 0.01 0.11-13.33-0.011-26.66-0.011-39.98-4.505-0.035-9.0041-0.0559-13.502-0.061zm53 70.997c-4.8326 0-9.6626 0.01-14.488 0.034-360.99 0.01-721.99 0.01-1083 0.01-8-0.05-15.989-0.06-23.989 0.02-0.11 11.65-0.061 23.3-0.011 34.97 378.66 0.01 757.31 0.02 1136 0 0.14-11.67 0-23.33 0-34.97-4.835-0.04-9.6691-0.06-14.502-0.064z" fill="#5b481c"/>
<path id="path10" d="m583.04 58.941c-161.48 102.53-323.3 204.62-484.19 308.01 323.45 0.03 646.89 0.17968 970.34-0.0703-161.59-103.34-323.94-205.59-486.16-307.94zm-470.35 351.06c-0.11 7.99-0.13064 15.981-0.02 23.991 313.99 0.02 627.99 0.01 941.98 0 0.09-8 0.06-16.001-0.02-23.991zm152.97 41.928c-5.9875-0.0008-11.974 0.0412-17.959 0.13125-0.02 9.94-0.0704 19.881-0.1 29.831-5.3 0.06-10.601 0.11907-15.891 0.18907-0.09 145.95-0.0688 291.91-0.01 437.86 5.3 0.0296 10.609 0.0792 15.919 0.13904 0.0704 9.96 0.0906 19.941 0.0408 29.911 12 0.02 24 0.0104 36 0-0.09-9.99-0.0592-19.961 0.0408-29.931 4.63-0.08 9.2897-0.0784 13.93-0.11872 0.04-145.62 0.0592-291.24-0.0112-436.86-4.66-0.07-9.2897-0.09-13.93-0.15-0.02-10.3-0.0504-20.59-0.0704-30.87-5.985-0.085-11.972-0.13-17.959-0.13125zm639.49 0c-5.15-0.003-10.297 0.0369-15.442 0.12187-0.04 9.94-0.0792 19.891-0.10936 29.841-5.31 0.06-10.611 0.11907-15.891 0.18907-0.09 145.95-0.0688 291.91-0.01 437.86 5.29 0.0296 10.599 0.0792 15.919 0.13904 0.06 9.96 0.0906 19.941 0.0408 29.911 9.99 0.02 19.99 0.0104 30 0-0.09-9.99-0.0592-19.961 0.0408-29.931 3.73-0.04 11.189-0.12872 14.919-0.16872 0.0704-145.94 0.06-291.88 0-437.82-4.68-0.07-9.2797-0.0906-13.93-0.14062-0.02-9.96-0.06-19.92-0.08-29.87-5.155-0.085-10.308-0.12876-15.458-0.13125zm-318.5 0.0578c-54.654 0.0008-109.31 0.0247-163.96 0.0547-0.02 9.95-0.0592 19.9-0.089 29.85-5.3 0.05-10.601 0.11906-15.891 0.18906-0.09 145.96-0.0688 291.91-0.01 437.87 5.63 0.0104 11.28 0.0592 16.93 0.10936 0.06 9.96 0.08 19.951 0.0296 29.931 12.99 0.0296 25.98 0.08 38.97-0.02 0.0296-137.26 0.10064-274.53-0.0296-411.79l-9.8813-0.4c-0.0296-5.25-0.0488-10.499-0.0688-15.739-1.5-0.03-4.501-0.0903-6.011-0.12031 0-5.63 0.009-11.26 0.0184-16.87 90.33-0.09 180.67-0.0798 271-0.009-0.0104 5.61 0.00064 11.22 0.02 16.85-1.5 0.04-4.5109 0.11-6.0109 0.15-0.0296 5.24-0.0584 10.49-0.0688 15.75-2.47 0.08-7.42 0.23876-9.9 0.31876-0.08 137.29-0.0512 274.57-0.0112 411.86 15.99 0.13 31.98 0.00032 47.97 0.02-0.09-9.99-0.0592-19.961 0.0408-29.931 3.73-0.04 11.189-0.12872 14.919-0.16872 0.0704-145.94 0.06-291.88 0-437.82-4.67-0.07-9.2797-0.0906-13.93-0.14062-0.02-9.96-0.06-19.92-0.0704-29.87-54.654-0.055-109.31-0.0747-163.96-0.0734zm532.48 563.96c-4.1688 0-8.3326 0.018-12.488 0.053-344 0-687.99 0.011-1032-0.01-8.66-0.05-17.32-0.042-25.98 0.038-0.09 10.31-0.11064 20.63-0.02 30.97 360.99 0 721.99 0 1083-0.01 0.07-10.33 0.06-20.651 0-30.961-4.17-0.055-8.3439-0.08-12.512-0.083zm-1105.4 66c-3.665 0.01-7.3303 0.027-10.995 0.067-0.11 9.31-0.09064 18.62 0.0096 27.95 391.65 0.06 783.3 0.039 1174.9 0.01 0.09-9.33 0.081-18.659-0.01-27.959-5.69-0.05-11.351-0.07-16.991-0.03-378.66 0.02-757.31 0.01-1136 0-3.665-0.03-7.3287-0.042-10.994-0.038z" fill="#caaf7e"/>
<path id="path4233" d="m582.15 543.99c-34.158-0.0008-68.315 0.01-102.48 0.0297-0.03 135.32-0.042 270.64 0.01 405.95 68.31 0.0496 136.63 0.04 204.95 0.01 0.03-135.32 0.042-270.64-0.01-405.95-34.16-0.025-68.318-0.0378-102.48-0.039z" fill="#2c5928"/>
<path id="path60" d="m582.15 543.99c-34.158-0.001-68.315 0.01-102.48 0.0297-0.03 135.32-0.041 270.64 0.01 405.95 68.31 0.05 136.63 0.0394 204.95 0.009 0.03-135.32 0.041-270.64-0.01-405.95-34.16-0.025-68.318-0.0378-102.48-0.0391zm-47.495 22.988c12.328-0.004 24.655 0.007 36.98 0.0422 0.03 30.32 0.05 60.639 0 90.959-24.66 0.03-49.309 0.06-73.959 0-0.04-30.32-0.05-60.639 0-90.959 12.325-0.02 24.652-0.0384 36.98-0.0422zm90 0c12.328-0.004 24.655 0.007 36.98 0.0422 0.03 30.32 0.05 60.639 0 90.959-24.66 0.03-49.309 0.06-73.959 0-0.04-30.32-0.05-60.639 0-90.959 12.325-0.02 24.652-0.0384 36.98-0.0422zm-90 108c12.328-0.004 24.655 0.007 36.98 0.0422 0.03 31.99 0.04 63.969 0 95.959-24.66 0.03-49.309 0.06-73.959 0-0.04-31.99-0.05-63.979 0-95.959 12.325-0.02 24.652-0.0384 36.98-0.0422zm90 0c12.328-0.004 24.655 0.007 36.98 0.0422 0.03 31.99 0.04 63.969 0 95.959-24.66 0.03-49.309 0.06-73.959 0-0.04-31.99-0.05-63.979 0-95.959 12.325-0.02 24.652-0.0384 36.98-0.0422zm-90 106c12.328-0.005 24.655 0.002 36.98 0.0375 0.03 50.99 0.04 101.97 0 152.96-24.66 0.03-49.309 0.06-73.959 0-0.03-50.99-0.04-101.98 0-152.96 12.325-0.015 24.652-0.0325 36.98-0.0375zm90 0c12.328-0.005 24.655 0.002 36.98 0.0375 0.03 50.99 0.04 101.97 0 152.96-24.66 0.03-49.309 0.06-73.959 0-0.03-50.99-0.04-101.98 0-152.96 12.325-0.015 24.652-0.0325 36.98-0.0375z" fill="#51744d"/>
<path id="path66" d="m534.66 571.98c-10.325 0.001-20.65 0.0181-30.975 0.0531-0.06 26.65-0.049 53.3-0.01 79.95 20.65 0.05 41.3 0.0506 61.95-0.009 0.06-26.65 0.049-53.3 0.01-79.95-10.325-0.03-20.65-0.045-30.975-0.0438zm90 0c-10.325 0.001-20.65 0.0181-30.975 0.0531-0.06 26.65-0.049 53.3-0.01 79.95 20.65 0.05 41.3 0.0506 61.95-0.009 0.06-26.65 0.049-53.3 0.01-79.95-10.325-0.03-20.65-0.045-30.975-0.0438zm-90.005 109c-10.328 0.001-20.655 0.0172-30.98 0.0422-0.06 27.98-0.03 55.969 0 83.959 20.65 0.05 41.299 0.04 61.959 0 0.06-27.99 0.03-55.979 0-83.959-10.325-0.03-20.652-0.0434-30.98-0.0422zm89.997 0c-10.326 0.001-20.652 0.0172-30.977 0.0422-0.06 27.98-0.03 55.969 0 83.959 20.65 0.05 41.299 0.04 61.959 0 0.06-27.99 0.03-55.979 0-83.959-10.33-0.03-20.657-0.0434-30.983-0.0422zm-89.997 109c-10.328 0.001-20.655 0.0172-30.98 0.0422-0.05 44.65-0.03 89.299 0 133.96 20.65 0.05 41.299 0.04 61.959 0 0.05-44.65 0.03-89.309 0-133.96-10.325-0.03-20.652-0.0434-30.98-0.0422zm89.502 0.002c-10.491 0.002-20.982 0.02-31.472 0.05-0.06 44.98-0.039 89.96-0.01 134.95 20.98 0.05 41.96 0.0406 62.95-0.009 0.06-44.98 0.039-89.97 0.01-134.95-10.495-0.03-20.987-0.0431-31.478-0.0406z" fill="#3f6b3b"/>
<path id="path7614" fill="#5b481c" d="m646.77 260.43h-51.444v56.676h-25.037v-56.676h-51.818v-15.321h51.818v-6.3527l-10.463-19.307h-41.355v-15.321h32.885l-39.486-72.994h23.667l47.209 87.194 46.96-87.194h23.792l-39.611 72.994h32.885v15.321h-41.23l-10.463 19.307v6.3527h51.694v15.321z"/>
</g>
</svg>
